<?xml version="1.0" encoding="UTF-8"?>
<!DOCTYPE svg PUBLIC "-//W3C//DTD SVG 1.1//EN" "http://www.w3.org/Graphics/SVG/1.1/DTD/svg11.dtd">
<svg version="1.2" width="122.68mm" height="45.72mm" viewBox="0 0 12268 4572" preserveAspectRatio="xMidYMid" fill-rule="evenodd" stroke-width="28.222" stroke-linejoin="round" xmlns="http://www.w3.org/2000/svg" xmlns:ooo="http://xml.openoffice.org/svg/export" xmlns:xlink="http://www.w3.org/1999/xlink" xmlns:presentation="http://sun.com/xmlns/staroffice/presentation" xmlns:smil="http://www.w3.org/2001/SMIL20/" xmlns:anim="urn:oasis:names:tc:opendocument:xmlns:animation:1.0" xml:space="preserve">
 <defs class="ClipPathGroup">
  <clipPath id="presentation_clip_path" clipPathUnits="userSpaceOnUse">
   <rect x="0" y="0" width="12268" height="4572"/>
  </clipPath>
  <clipPath id="presentation_clip_path_shrink" clipPathUnits="userSpaceOnUse">
   <rect x="12" y="4" width="12244" height="4563"/>
  </clipPath>
 </defs>
 <defs class="TextShapeIndex">
  <g ooo:slide="id1" ooo:id-list="id3 id4 id5 id6 id7 id8 id9 id10 id11 id12 id13 id14 id15 id16 id17 id18 id19 id20 id21 id22 id23 id24 id25 id26 id27 id28 id29 id30 id31 id32 id33 id34 id35 id36 id37 id38 id39"/>
 </defs>
 <defs class="EmbeddedBulletChars">
  <g id="bullet-char-template-57356" transform="scale(0.00048828125,-0.00048828125)">
   <path d="M 580,1141 L 1163,571 580,0 -4,571 580,1141 Z"/>
  </g>
  <g id="bullet-char-template-57354" transform="scale(0.00048828125,-0.00048828125)">
   <path d="M 8,1128 L 1137,1128 1137,0 8,0 8,1128 Z"/>
  </g>
  <g id="bullet-char-template-10146" transform="scale(0.00048828125,-0.00048828125)">
   <path d="M 174,0 L 602,739 174,1481 1456,739 174,0 Z M 1358,739 L 309,1346 659,739 1358,739 Z"/>
  </g>
  <g id="bullet-char-template-10132" transform="scale(0.00048828125,-0.00048828125)">
   <path d="M 2015,739 L 1276,0 717,0 1260,543 174,543 174,936 1260,936 717,1481 1274,1481 2015,739 Z"/>
  </g>
  <g id="bullet-char-template-10007" transform="scale(0.00048828125,-0.00048828125)">
   <path d="M 0,-2 C -7,14 -16,27 -25,37 L 356,567 C 262,823 215,952 215,954 215,979 228,992 255,992 264,992 276,990 289,987 310,991 331,999 354,1012 L 381,999 492,748 772,1049 836,1024 860,1049 C 881,1039 901,1025 922,1006 886,937 835,863 770,784 769,783 710,716 594,584 L 774,223 C 774,196 753,168 711,139 L 727,119 C 717,90 699,76 672,76 641,76 570,178 457,381 L 164,-76 C 142,-110 111,-127 72,-127 30,-127 9,-110 8,-76 1,-67 -2,-52 -2,-32 -2,-23 -1,-13 0,-2 Z"/>
  </g>
  <g id="bullet-char-template-10004" transform="scale(0.00048828125,-0.00048828125)">
   <path d="M 285,-33 C 182,-33 111,30 74,156 52,228 41,333 41,471 41,549 55,616 82,672 116,743 169,778 240,778 293,778 328,747 346,684 L 369,508 C 377,444 397,411 428,410 L 1163,1116 C 1174,1127 1196,1133 1229,1133 1271,1133 1292,1118 1292,1087 L 1292,965 C 1292,929 1282,901 1262,881 L 442,47 C 390,-6 338,-33 285,-33 Z"/>
  </g>
  <g id="bullet-char-template-9679" transform="scale(0.00048828125,-0.00048828125)">
   <path d="M 813,0 C 632,0 489,54 383,161 276,268 223,411 223,592 223,773 276,916 383,1023 489,1130 632,1184 813,1184 992,1184 1136,1130 1245,1023 1353,916 1407,772 1407,592 1407,412 1353,268 1245,161 1136,54 992,0 813,0 Z"/>
  </g>
  <g id="bullet-char-template-8226" transform="scale(0.00048828125,-0.00048828125)">
   <path d="M 346,457 C 273,457 209,483 155,535 101,586 74,649 74,723 74,796 101,859 155,911 209,963 273,989 346,989 419,989 480,963 531,910 582,859 608,796 608,723 608,648 583,586 532,535 482,483 420,457 346,457 Z"/>
  </g>
  <g id="bullet-char-template-8211" transform="scale(0.00048828125,-0.00048828125)">
   <path d="M -4,459 L 1135,459 1135,606 -4,606 -4,459 Z"/>
  </g>
  <g id="bullet-char-template-61548" transform="scale(0.00048828125,-0.00048828125)">
   <path d="M 173,740 C 173,903 231,1043 346,1159 462,1274 601,1332 765,1332 928,1332 1067,1274 1183,1159 1299,1043 1357,903 1357,740 1357,577 1299,437 1183,322 1067,206 928,148 765,148 601,148 462,206 346,322 231,437 173,577 173,740 Z"/>
  </g>
 </defs>
 <defs class="TextEmbeddedBitmaps"/>
 <g>
  <g id="id2" class="Master_Slide">
   <g id="bg-id2" class="Background"/>
   <g id="bo-id2" class="BackgroundObjects"/>
  </g>
 </g>
 <g class="SlideGroup">
  <g>
   <g id="container-id1">
    <g id="id1" class="Slide" clip-path="url(#presentation_clip_path)">
     <g class="Page">
      <g class="Group">
       <g class="com.sun.star.drawing.ClosedBezierShape">
        <g id="id3">
         <rect class="BoundingBox" stroke="none" fill="none" x="692" y="3788" width="229" height="373"/>
         <path fill="rgb(0,75,128)" stroke="none" d="M 693,3795 C 715,3791 745,3788 784,3788 831,3788 866,3799 888,3819 908,3836 920,3863 920,3896 920,3929 910,3955 891,3975 867,4002 825,4015 779,4015 765,4015 751,4015 740,4012 L 740,4160 693,4160 693,3795 Z M 693,3795 L 693,3795 Z M 740,3973 L 740,3973 C 751,3976 764,3977 780,3977 837,3977 872,3949 872,3898 872,3849 838,3826 785,3826 765,3826 748,3827 740,3830 L 740,3973 Z"/>
        </g>
       </g>
       <g class="com.sun.star.drawing.ClosedBezierShape">
        <g id="id4">
         <rect class="BoundingBox" stroke="none" fill="none" x="1046" y="3790" width="310" height="371"/>
         <path fill="rgb(0,75,128)" stroke="none" d="M 1134,4043 L 1095,4160 1046,4160 1171,3791 1229,3791 1354,4160 1303,4160 1264,4043 1134,4043 Z M 1134,4043 L 1134,4043 Z M 1254,4006 L 1254,4006 1219,3900 C 1210,3876 1205,3854 1199,3833 L 1198,3833 C 1192,3854 1186,3877 1179,3900 L 1143,4006 1254,4006 Z"/>
        </g>
       </g>
       <g class="com.sun.star.drawing.ClosedBezierShape">
        <g id="id5">
         <rect class="BoundingBox" stroke="none" fill="none" x="1544" y="3788" width="242" height="373"/>
         <path fill="rgb(0,75,128)" stroke="none" d="M 1545,3796 C 1568,3791 1602,3788 1636,3788 1687,3788 1719,3797 1743,3818 1761,3834 1771,3860 1771,3888 1771,3937 1741,3969 1702,3983 L 1702,3984 C 1731,3994 1748,4020 1756,4059 1768,4110 1777,4146 1784,4160 L 1736,4160 C 1730,4149 1721,4118 1711,4072 1700,4021 1680,4002 1637,4000 L 1591,4000 1591,4160 1545,4160 1545,3796 Z M 1545,3796 L 1545,3796 Z M 1591,3963 L 1591,3963 1641,3963 C 1691,3963 1724,3936 1724,3894 1724,3846 1689,3825 1639,3825 1616,3825 1599,3827 1591,3829 L 1591,3963 Z"/>
        </g>
       </g>
       <g class="com.sun.star.drawing.ClosedBezierShape">
        <g id="id6">
         <rect class="BoundingBox" stroke="none" fill="none" x="1974" y="3790" width="262" height="371"/>
         <path fill="rgb(0,75,128)" stroke="none" d="M 1975,3791 L 2022,3791 2022,3969 2024,3969 C 2033,3954 2043,3941 2053,3929 L 2165,3791 2224,3791 2091,3947 2235,4160 2178,4160 2057,3978 2022,4019 2022,4160 1975,4160 1975,3791 Z"/>
        </g>
       </g>
       <g class="com.sun.star.drawing.PolyPolygonShape">
        <g id="id7">
         <rect class="BoundingBox" stroke="none" fill="none" x="2407" y="3790" width="50" height="371"/>
         <path fill="rgb(0,75,128)" stroke="none" d="M 2455,3791 L 2455,4160 2407,4160 2407,3791 2455,3791 Z"/>
        </g>
       </g>
       <g class="com.sun.star.drawing.ClosedBezierShape">
        <g id="id8">
         <rect class="BoundingBox" stroke="none" fill="none" x="2673" y="3790" width="279" height="371"/>
         <path fill="rgb(0,75,128)" stroke="none" d="M 2674,4160 L 2674,3791 2725,3791 2843,3977 C 2871,4020 2892,4059 2910,4098 L 2911,4097 C 2906,4047 2905,4003 2905,3945 L 2905,3791 2950,3791 2950,4160 2902,4160 2785,3972 C 2759,3931 2735,3889 2716,3849 L 2714,3849 C 2717,3896 2718,3941 2718,4002 L 2718,4160 2674,4160 Z"/>
        </g>
       </g>
       <g class="com.sun.star.drawing.ClosedBezierShape">
        <g id="id9">
         <rect class="BoundingBox" stroke="none" fill="none" x="3147" y="3787" width="304" height="378"/>
         <path fill="rgb(0,75,128)" stroke="none" d="M 3449,4143 C 3428,4151 3386,4164 3337,4164 3280,4164 3234,4149 3198,4115 3167,4084 3148,4035 3148,3978 3148,3867 3223,3787 3347,3787 3389,3787 3423,3796 3438,3804 L 3427,3843 C 3407,3834 3383,3827 3345,3827 3256,3827 3197,3883 3197,3976 3197,4069 3253,4124 3339,4124 3370,4124 3392,4120 3403,4114 L 3403,4004 3328,4004 3328,3966 3449,3966 3449,4143 Z"/>
        </g>
       </g>
       <g class="com.sun.star.drawing.ClosedBezierShape">
        <g id="id10">
         <rect class="BoundingBox" stroke="none" fill="none" x="3891" y="3785" width="225" height="382"/>
         <path fill="rgb(0,75,128)" stroke="none" d="M 3904,4102 C 3925,4115 3956,4126 3989,4126 4038,4126 4066,4100 4066,4063 4066,4028 4046,4009 3997,3989 3936,3968 3899,3937 3899,3885 3899,3827 3947,3785 4019,3785 4056,3785 4083,3793 4100,3803 L 4087,3841 C 4075,3835 4050,3824 4017,3824 3966,3824 3947,3854 3947,3879 3947,3914 3970,3931 4021,3951 4083,3975 4115,4005 4115,4059 4115,4116 4072,4165 3986,4165 3950,4165 3911,4155 3892,4142 L 3904,4102 Z"/>
        </g>
       </g>
       <g class="com.sun.star.drawing.PolyPolygonShape">
        <g id="id11">
         <rect class="BoundingBox" stroke="none" fill="none" x="4315" y="3790" width="209" height="371"/>
         <path fill="rgb(0,75,128)" stroke="none" d="M 4506,3987 L 4363,3987 4363,4120 4523,4120 4523,4160 4316,4160 4316,3791 4514,3791 4514,3830 4363,3830 4363,3947 4506,3947 4506,3987 Z"/>
        </g>
       </g>
       <g class="com.sun.star.drawing.ClosedBezierShape">
        <g id="id12">
         <rect class="BoundingBox" stroke="none" fill="none" x="4721" y="3788" width="241" height="373"/>
         <path fill="rgb(0,75,128)" stroke="none" d="M 4721,3796 C 4745,3791 4779,3788 4812,3788 4863,3788 4896,3797 4919,3818 4937,3834 4948,3860 4948,3888 4948,3937 4918,3969 4878,3983 L 4878,3984 C 4907,3994 4924,4020 4932,4059 4945,4110 4953,4146 4961,4160 L 4912,4160 C 4906,4149 4898,4118 4887,4072 4876,4021 4856,4002 4813,4000 L 4768,4000 4768,4160 4721,4160 4721,3796 Z M 4721,3796 L 4721,3796 Z M 4768,3963 L 4768,3963 4817,3963 C 4868,3963 4900,3936 4900,3894 4900,3846 4866,3825 4816,3825 4793,3825 4776,3827 4768,3829 L 4768,3963 Z"/>
        </g>
       </g>
       <g class="com.sun.star.drawing.ClosedBezierShape">
        <g id="id13">
         <rect class="BoundingBox" stroke="none" fill="none" x="5120" y="3790" width="306" height="371"/>
         <path fill="rgb(0,75,128)" stroke="none" d="M 5240,4160 L 5120,3791 5171,3791 5229,3972 C 5245,4022 5258,4068 5268,4111 L 5269,4111 C 5280,4068 5295,4021 5311,3973 L 5374,3791 5425,3791 5293,4160 5240,4160 Z"/>
        </g>
       </g>
       <g class="com.sun.star.drawing.PolyPolygonShape">
        <g id="id14">
         <rect class="BoundingBox" stroke="none" fill="none" x="5600" y="3790" width="50" height="371"/>
         <path fill="rgb(0,75,128)" stroke="none" d="M 5648,3791 L 5648,4160 5601,4160 5601,3791 5648,3791 Z"/>
        </g>
       </g>
       <g class="com.sun.star.drawing.ClosedBezierShape">
        <g id="id15">
         <rect class="BoundingBox" stroke="none" fill="none" x="5845" y="3785" width="282" height="382"/>
         <path fill="rgb(0,75,128)" stroke="none" d="M 6125,4148 C 6108,4157 6073,4165 6027,4165 5924,4165 5846,4100 5846,3979 5846,3863 5924,3785 6038,3785 6084,3785 6113,3794 6126,3801 L 6114,3840 C 6096,3831 6071,3824 6039,3824 5954,3824 5896,3880 5896,3977 5896,4067 5948,4126 6037,4126 6067,4126 6096,4120 6115,4110 L 6125,4148 Z"/>
        </g>
       </g>
       <g class="com.sun.star.drawing.PolyPolygonShape">
        <g id="id16">
         <rect class="BoundingBox" stroke="none" fill="none" x="6320" y="3790" width="209" height="371"/>
         <path fill="rgb(0,75,128)" stroke="none" d="M 6511,3987 L 6368,3987 6368,4120 6527,4120 6527,4160 6321,4160 6321,3791 6519,3791 6519,3830 6368,3830 6368,3947 6511,3947 6511,3987 Z"/>
        </g>
       </g>
       <g class="com.sun.star.drawing.ClosedBezierShape">
        <g id="id17">
         <rect class="BoundingBox" stroke="none" fill="none" x="6967" y="3790" width="378" height="371"/>
         <path fill="rgb(0,75,128)" stroke="none" d="M 7287,3998 C 7285,3946 7281,3884 7282,3838 L 7280,3838 C 7268,3881 7252,3928 7234,3978 L 7169,4158 7133,4158 7073,3982 C 7056,3930 7041,3882 7031,3838 L 7030,3838 C 7029,3884 7026,3946 7023,4001 L 7013,4160 6968,4160 6993,3791 7053,3791 7116,3969 C 7131,4015 7144,4055 7153,4094 L 7155,4094 C 7165,4056 7178,4016 7194,3969 L 7260,3791 7320,3791 7343,4160 7297,4160 7287,3998 Z"/>
        </g>
       </g>
       <g class="com.sun.star.drawing.ClosedBezierShape">
        <g id="id18">
         <rect class="BoundingBox" stroke="none" fill="none" x="7519" y="3790" width="310" height="371"/>
         <path fill="rgb(0,75,128)" stroke="none" d="M 7606,4043 L 7568,4160 7520,4160 7644,3791 7702,3791 7827,4160 7776,4160 7738,4043 7606,4043 Z M 7606,4043 L 7606,4043 Z M 7728,4006 L 7728,4006 7692,3900 C 7684,3876 7678,3854 7672,3833 L 7671,3833 C 7666,3854 7660,3877 7652,3900 L 7616,4006 7728,4006 Z"/>
        </g>
       </g>
       <g class="com.sun.star.drawing.ClosedBezierShape">
        <g id="id19">
         <rect class="BoundingBox" stroke="none" fill="none" x="8017" y="3790" width="278" height="371"/>
         <path fill="rgb(0,75,128)" stroke="none" d="M 8018,4160 L 8018,3791 8069,3791 8187,3977 C 8215,4020 8236,4059 8254,4098 L 8255,4097 C 8250,4047 8249,4003 8249,3945 L 8249,3791 8294,3791 8294,4160 8246,4160 8128,3972 C 8103,3931 8079,3889 8060,3849 L 8058,3849 C 8061,3896 8062,3941 8062,4002 L 8062,4160 8018,4160 Z"/>
        </g>
       </g>
       <g class="com.sun.star.drawing.ClosedBezierShape">
        <g id="id20">
         <rect class="BoundingBox" stroke="none" fill="none" x="8485" y="3790" width="310" height="371"/>
         <path fill="rgb(0,75,128)" stroke="none" d="M 8573,4043 L 8534,4160 8485,4160 8610,3791 8668,3791 8793,4160 8743,4160 8703,4043 8573,4043 Z M 8573,4043 L 8573,4043 Z M 8693,4006 L 8693,4006 8657,3900 C 8649,3876 8644,3854 8638,3833 L 8636,3833 C 8631,3854 8626,3877 8618,3900 L 8582,4006 8693,4006 Z"/>
        </g>
       </g>
       <g class="com.sun.star.drawing.ClosedBezierShape">
        <g id="id21">
         <rect class="BoundingBox" stroke="none" fill="none" x="8954" y="3787" width="304" height="378"/>
         <path fill="rgb(0,75,128)" stroke="none" d="M 9256,4143 C 9235,4151 9193,4164 9143,4164 9087,4164 9041,4149 9005,4115 8974,4084 8954,4035 8954,3978 8954,3867 9030,3787 9153,3787 9196,3787 9229,3796 9245,3804 L 9234,3843 C 9214,3834 9190,3827 9152,3827 9063,3827 9004,3883 9004,3976 9004,4069 9060,4124 9146,4124 9177,4124 9199,4120 9210,4114 L 9210,4004 9135,4004 9135,3966 9256,3966 9256,4143 Z"/>
        </g>
       </g>
       <g class="com.sun.star.drawing.PolyPolygonShape">
        <g id="id22">
         <rect class="BoundingBox" stroke="none" fill="none" x="9464" y="3790" width="209" height="371"/>
         <path fill="rgb(0,75,128)" stroke="none" d="M 9655,3987 L 9512,3987 9512,4120 9672,4120 9672,4160 9465,4160 9465,3791 9663,3791 9663,3830 9512,3830 9512,3947 9655,3947 9655,3987 Z"/>
        </g>
       </g>
       <g class="com.sun.star.drawing.ClosedBezierShape">
        <g id="id23">
         <rect class="BoundingBox" stroke="none" fill="none" x="9859" y="3790" width="378" height="371"/>
         <path fill="rgb(0,75,128)" stroke="none" d="M 10180,3998 C 10178,3946 10174,3884 10175,3838 L 10173,3838 C 10161,3881 10145,3928 10126,3978 L 10061,4158 10026,4158 9966,3982 C 9948,3930 9933,3882 9923,3838 L 9922,3838 C 9921,3884 9918,3946 9915,4001 L 9905,4160 9860,4160 9885,3791 9946,3791 10009,3969 C 10024,4015 10036,4055 10046,4094 L 10047,4094 C 10057,4056 10070,4016 10086,3969 L 10152,3791 10213,3791 10235,4160 10190,4160 10180,3998 Z"/>
        </g>
       </g>
       <g class="com.sun.star.drawing.PolyPolygonShape">
        <g id="id24">
         <rect class="BoundingBox" stroke="none" fill="none" x="10444" y="3790" width="209" height="371"/>
         <path fill="rgb(0,75,128)" stroke="none" d="M 10636,3987 L 10492,3987 10492,4120 10652,4120 10652,4160 10445,4160 10445,3791 10644,3791 10644,3830 10492,3830 10492,3947 10636,3947 10636,3987 Z"/>
        </g>
       </g>
       <g class="com.sun.star.drawing.ClosedBezierShape">
        <g id="id25">
         <rect class="BoundingBox" stroke="none" fill="none" x="10849" y="3790" width="278" height="371"/>
         <path fill="rgb(0,75,128)" stroke="none" d="M 10850,4160 L 10850,3791 10901,3791 11020,3977 C 11047,4020 11068,4059 11086,4098 L 11087,4097 C 11082,4047 11081,4003 11081,3945 L 11081,3791 11126,3791 11126,4160 11078,4160 10961,3972 C 10935,3931 10911,3889 10892,3849 L 10891,3849 C 10893,3896 10894,3941 10894,4002 L 10894,4160 10850,4160 Z"/>
        </g>
       </g>
       <g class="com.sun.star.drawing.PolyPolygonShape">
        <g id="id26">
         <rect class="BoundingBox" stroke="none" fill="none" x="11303" y="3790" width="274" height="371"/>
         <path fill="rgb(0,75,128)" stroke="none" d="M 11415,3831 L 11303,3831 11303,3791 11576,3791 11576,3831 11463,3831 11463,4160 11415,4160 11415,3831 Z"/>
        </g>
       </g>
      </g>
      <g class="Group">
       <g class="Group">
        <g class="com.sun.star.drawing.ClosedBezierShape">
         <g id="id27">
          <rect class="BoundingBox" stroke="none" fill="none" x="6122" y="440" width="1154" height="1298"/>
          <path fill="rgb(0,75,128)" stroke="none" d="M 6969,800 C 6953,775 6933,751 6909,731 6884,712 6857,696 6826,686 6796,674 6764,669 6730,669 6669,669 6617,681 6574,704 6532,728 6497,760 6471,800 6444,841 6425,886 6413,937 6400,987 6394,1040 6394,1094 6394,1146 6400,1197 6413,1246 6425,1295 6444,1340 6471,1379 6497,1419 6532,1451 6574,1474 6617,1497 6669,1509 6730,1509 6814,1509 6878,1484 6925,1433 6972,1382 7001,1315 7011,1232 L 7274,1232 C 7268,1309 7250,1379 7221,1442 7192,1504 7154,1557 7107,1601 7059,1645 7004,1679 6940,1702 6876,1725 6807,1737 6730,1737 6636,1737 6550,1720 6475,1687 6399,1654 6335,1609 6283,1551 6231,1493 6191,1426 6164,1347 6136,1269 6122,1185 6122,1094 6122,1002 6136,916 6164,837 6191,757 6231,688 6283,629 6335,570 6399,524 6475,490 6550,457 6636,440 6730,440 6798,440 6863,449 6923,469 6984,489 7039,517 7087,555 7135,593 7174,639 7205,695 7236,750 7256,815 7264,886 L 7001,886 C 6996,855 6986,826 6969,800 Z"/>
         </g>
        </g>
        <g class="com.sun.star.drawing.ClosedBezierShape">
         <g id="id28">
          <rect class="BoundingBox" stroke="none" fill="none" x="7389" y="786" width="896" height="947"/>
          <path fill="rgb(0,75,128)" stroke="none" d="M 7696,1493 C 7733,1529 7786,1547 7856,1547 7905,1547 7948,1535 7984,1510 8020,1485 8042,1459 8050,1431 L 8266,1431 C 8232,1539 8179,1615 8107,1662 8035,1708 7949,1731 7847,1731 7776,1731 7713,1720 7656,1697 7600,1675 7551,1643 7512,1601 7473,1559 7443,1510 7421,1452 7400,1394 7390,1330 7390,1261 7390,1193 7400,1131 7422,1073 7444,1015 7476,965 7516,923 7556,880 7605,847 7661,823 7716,799 7778,787 7847,787 7923,787 7990,801 8047,831 8103,861 8149,900 8186,950 8222,999 8248,1056 8264,1120 8281,1184 8286,1250 8282,1320 L 7635,1320 C 7639,1399 7659,1457 7696,1493 Z M 7696,1493 L 7696,1493 Z M 7974,1020 L 7974,1020 C 7945,988 7900,972 7840,972 7800,972 7768,978 7742,992 7716,1005 7695,1022 7680,1042 7664,1062 7653,1083 7647,1104 7640,1127 7637,1146 7635,1163 L 8036,1163 C 8024,1101 8004,1053 7974,1020 Z"/>
         </g>
        </g>
        <g class="com.sun.star.drawing.ClosedBezierShape">
         <g id="id29">
          <rect class="BoundingBox" stroke="none" fill="none" x="8426" y="786" width="843" height="924"/>
          <path fill="rgb(0,75,128)" stroke="none" d="M 8661,811 L 8661,936 8666,936 C 8698,884 8738,846 8787,822 8837,799 8888,787 8940,787 9006,787 9060,796 9103,814 9145,831 9178,856 9202,888 9226,920 9243,958 9253,1004 9263,1050 9268,1101 9268,1156 L 9268,1709 9021,1709 9021,1201 C 9021,1127 9010,1072 8986,1036 8963,999 8923,981 8864,981 8797,981 8749,1000 8718,1041 8688,1081 8673,1147 8673,1238 L 8673,1709 8427,1709 8427,811 8661,811 Z"/>
         </g>
        </g>
        <g class="com.sun.star.drawing.ClosedBezierShape">
         <g id="id30">
          <rect class="BoundingBox" stroke="none" fill="none" x="9370" y="542" width="578" height="1177"/>
          <path fill="rgb(0,75,128)" stroke="none" d="M 9946,811 L 9946,976 9766,976 9766,1421 C 9766,1463 9773,1490 9787,1504 9801,1518 9828,1525 9870,1525 9883,1525 9897,1525 9910,1523 9922,1522 9935,1520 9946,1518 L 9946,1709 C 9925,1712 9902,1715 9877,1716 9851,1717 9826,1718 9803,1718 9764,1718 9728,1715 9694,1710 9660,1705 9630,1695 9603,1680 9577,1664 9557,1643 9542,1615 9527,1588 9519,1551 9519,1506 L 9519,976 9371,976 9371,811 9519,811 9519,542 9766,542 9766,811 9946,811 Z"/>
         </g>
        </g>
        <g class="com.sun.star.drawing.ClosedBezierShape">
         <g id="id31">
          <rect class="BoundingBox" stroke="none" fill="none" x="10063" y="786" width="580" height="924"/>
          <path fill="rgb(0,75,128)" stroke="none" d="M 10298,811 L 10298,977 10301,977 C 10313,950 10329,924 10348,900 10368,876 10390,856 10415,840 10441,823 10468,810 10498,801 10527,791 10557,787 10588,787 10604,787 10622,790 10641,795 L 10641,1025 C 10630,1022 10616,1020 10600,1018 10584,1016 10568,1015 10553,1015 10508,1015 10469,1023 10438,1038 10407,1053 10382,1074 10363,1100 10344,1126 10330,1156 10322,1191 10314,1226 10310,1263 10310,1304 L 10310,1709 10064,1709 10064,811 10298,811 Z"/>
         </g>
        </g>
        <g class="com.sun.star.drawing.ClosedBezierShape">
         <g id="id32">
          <rect class="BoundingBox" stroke="none" fill="none" x="10663" y="786" width="895" height="947"/>
          <path fill="rgb(0,75,128)" stroke="none" d="M 10969,1493 C 11007,1529 11059,1547 11129,1547 11179,1547 11222,1535 11257,1510 11293,1485 11315,1459 11323,1431 L 11540,1431 C 11505,1539 11452,1615 11380,1662 11308,1708 11222,1731 11120,1731 11050,1731 10986,1720 10929,1697 10873,1675 10825,1643 10786,1601 10746,1559 10716,1510 10695,1452 10674,1394 10663,1330 10663,1261 10663,1193 10674,1131 10696,1073 10717,1015 10749,965 10789,923 10830,880 10878,847 10934,823 10990,799 11052,787 11120,787 11197,787 11263,801 11319,831 11376,861 11422,900 11459,950 11495,999 11522,1056 11538,1120 11554,1184 11560,1250 11555,1320 L 10908,1320 C 10912,1399 10932,1457 10969,1493 Z M 10969,1493 L 10969,1493 Z M 11247,1020 L 11247,1020 C 11218,988 11174,972 11113,972 11073,972 11041,978 11015,992 10989,1005 10968,1022 10953,1042 10937,1062 10926,1083 10920,1104 10913,1127 10910,1146 10908,1163 L 11309,1163 C 11298,1101 11277,1053 11247,1020 Z"/>
         </g>
        </g>
       </g>
       <g class="Group">
        <g class="com.sun.star.drawing.ClosedBezierShape">
         <g id="id33">
          <rect class="BoundingBox" stroke="none" fill="none" x="6204" y="2106" width="917" height="1153"/>
          <path fill="rgb(0,75,128)" stroke="none" d="M 6722,2107 C 6794,2107 6855,2117 6906,2138 6957,2159 6998,2186 7029,2221 7061,2255 7084,2294 7098,2339 7113,2383 7120,2429 7120,2476 7120,2522 7113,2567 7098,2612 7084,2657 7061,2696 7029,2730 6998,2765 6957,2793 6906,2814 6855,2834 6794,2845 6722,2845 L 6457,2845 6457,3258 6204,3258 6204,2107 6722,2107 Z M 6722,2107 L 6722,2107 Z M 6653,2648 L 6653,2648 C 6682,2648 6710,2646 6737,2642 6764,2638 6787,2629 6808,2617 6827,2605 6844,2587 6856,2564 6869,2542 6875,2513 6875,2476 6875,2440 6869,2410 6856,2387 6844,2365 6827,2347 6808,2335 6787,2322 6764,2314 6737,2310 6710,2305 6682,2303 6653,2303 L 6457,2303 6457,2648 6653,2648 Z"/>
         </g>
        </g>
        <g class="com.sun.star.drawing.ClosedBezierShape">
         <g id="id34">
          <rect class="BoundingBox" stroke="none" fill="none" x="7217" y="2401" width="813" height="879"/>
          <path fill="rgb(0,75,128)" stroke="none" d="M 7243,2680 C 7246,2626 7259,2581 7283,2546 7306,2511 7337,2483 7373,2461 7409,2439 7451,2424 7497,2415 7542,2406 7588,2401 7634,2401 7676,2401 7718,2404 7761,2410 7804,2416 7844,2428 7879,2445 7914,2462 7943,2486 7966,2517 7988,2547 7999,2587 7999,2638 L 7999,3072 C 7999,3109 8002,3145 8006,3180 8010,3214 8018,3240 8028,3257 L 7796,3257 C 7792,3244 7789,3231 7786,3218 7783,3204 7781,3190 7780,3176 7744,3214 7701,3240 7652,3256 7602,3271 7552,3278 7501,3278 7461,3278 7424,3273 7389,3264 7355,3254 7325,3239 7299,3219 7273,3198 7253,3172 7239,3141 7224,3110 7217,3073 7217,3030 7217,2983 7225,2944 7242,2913 7258,2883 7280,2858 7306,2839 7333,2821 7362,2807 7396,2798 7430,2789 7465,2782 7499,2776 7533,2771 7567,2767 7600,2764 7633,2760 7663,2756 7689,2749 7714,2743 7735,2733 7750,2721 7765,2708 7772,2691 7770,2667 7770,2642 7767,2623 7758,2608 7751,2594 7740,2582 7726,2574 7713,2566 7698,2561 7680,2558 7662,2556 7643,2554 7623,2554 7577,2554 7542,2564 7517,2583 7491,2602 7476,2635 7472,2680 L 7243,2680 Z M 7243,2680 L 7243,2680 Z M 7770,2850 L 7770,2850 C 7761,2858 7749,2865 7734,2870 7720,2875 7705,2879 7688,2882 7671,2885 7654,2888 7635,2890 7617,2892 7599,2895 7581,2898 7564,2901 7547,2906 7530,2911 7514,2916 7499,2924 7487,2933 7475,2942 7465,2954 7457,2967 7450,2981 7446,2999 7446,3020 7446,3041 7450,3058 7457,3072 7465,3086 7475,3097 7488,3104 7501,3113 7516,3118 7533,3122 7550,3125 7567,3126 7586,3126 7631,3126 7666,3119 7691,3104 7715,3089 7733,3071 7745,3050 7757,3029 7764,3008 7767,2987 7769,2965 7770,2948 7770,2935 L 7770,2850 Z"/>
         </g>
        </g>
        <g class="com.sun.star.drawing.ClosedBezierShape">
         <g id="id35">
          <rect class="BoundingBox" stroke="none" fill="none" x="8175" y="2401" width="538" height="858"/>
          <path fill="rgb(0,75,128)" stroke="none" d="M 8393,2424 L 8393,2578 8397,2578 C 8407,2552 8421,2529 8439,2507 8458,2485 8479,2466 8502,2450 8526,2435 8551,2423 8579,2414 8605,2405 8633,2401 8662,2401 8677,2401 8693,2404 8712,2410 L 8712,2621 C 8701,2620 8688,2618 8673,2616 8658,2614 8644,2614 8630,2614 8588,2614 8552,2620 8523,2635 8494,2649 8471,2668 8453,2692 8435,2716 8423,2744 8415,2776 8408,2809 8404,2844 8404,2882 L 8404,3257 8176,3257 8176,2424 8393,2424 Z"/>
         </g>
        </g>
        <g class="com.sun.star.drawing.PolyPolygonShape">
         <g id="id36">
          <rect class="BoundingBox" stroke="none" fill="none" x="8822" y="2106" width="824" height="1153"/>
          <path fill="rgb(0,75,128)" stroke="none" d="M 9051,2107 L 9051,2724 9339,2425 9610,2425 9295,2730 9645,3258 9368,3258 9139,2885 9051,2971 9051,3258 8822,3258 8822,2107 9051,2107 Z"/>
         </g>
        </g>
       </g>
      </g>
      <g class="Group">
       <g class="com.sun.star.drawing.ClosedBezierShape">
        <g id="id37">
         <rect class="BoundingBox" stroke="none" fill="none" x="638" y="381" width="2952" height="2958"/>
         <path fill="rgb(252,185,0)" stroke="none" d="M 3589,1859 C 3589,2675 2928,3337 2113,3337 1298,3337 638,2675 638,1859 638,1042 1298,381 2113,381 2928,381 3589,1042 3589,1859 Z"/>
        </g>
       </g>
       <g class="com.sun.star.drawing.ClosedBezierShape">
        <g id="id38">
         <rect class="BoundingBox" stroke="none" fill="none" x="1480" y="396" width="4106" height="2937"/>
         <path fill="rgb(0,75,128)" stroke="none" d="M 5069,397 L 3368,397 C 3072,397 2816,622 2816,918 L 2816,1357 C 2816,1550 2639,1488 2543,1397 2542,1395 2545,1395 2544,1394 2430,1288 2281,1224 2114,1224 1763,1224 1481,1508 1481,1860 1481,2210 1765,2495 2115,2495 2282,2495 2433,2431 2547,2326 2548,2325 2542,2324 2543,2323 2639,2231 2816,2169 2816,2362 L 2816,2801 C 2816,3097 3072,3331 3368,3331 L 5069,3331 C 5365,3331 5584,3097 5584,2801 L 5584,918 C 5584,622 5365,397 5069,397 Z"/>
        </g>
       </g>
       <g class="com.sun.star.drawing.ClosedBezierShape">
        <g id="id39">
         <rect class="BoundingBox" stroke="none" fill="none" x="3614" y="983" width="1435" height="1762"/>
         <path fill="rgb(255,255,255)" stroke="none" d="M 5015,1341 C 4991,1271 4954,1208 4904,1153 4854,1099 4788,1060 4709,1027 4630,994 4534,983 4424,983 L 3615,983 3615,2744 4040,2744 4040,2104 4424,2104 C 4534,2104 4630,2104 4709,2071 4788,2038 4854,2003 4904,1949 4954,1894 4991,1834 5015,1763 5037,1694 5048,1625 5048,1553 5048,1479 5037,1410 5015,1341 Z M 5015,1341 L 5015,1341 Z M 4040,1356 L 4040,1356 4322,1356 C 4363,1356 4401,1352 4439,1358 4472,1363 4502,1370 4528,1385 4552,1400 4571,1419 4586,1445 4601,1473 4609,1509 4609,1556 4609,1602 4601,1639 4586,1667 4571,1694 4552,1714 4528,1729 4503,1744 4473,1762 4438,1767 4401,1773 4363,1783 4322,1783 L 4040,1783 4040,1356 Z"/>
        </g>
       </g>
      </g>
     </g>
    </g>
   </g>
  </g>
 </g>
</svg>